<svg width="94" height="94" viewBox="0 0 94 94" fill="none" xmlns="http://www.w3.org/2000/svg">
<path d="M35.25 50.9167H58.75H35.25ZM47 39.1667V62.6667V39.1667ZM66.5833 82.25H27.4166C25.3391 82.25 23.3467 81.4247 21.8776 79.9557C20.4086 78.4866 19.5833 76.4942 19.5833 74.4167V19.5833C19.5833 17.5058 20.4086 15.5134 21.8776 14.0443C23.3467 12.5753 25.3391 11.75 27.4166 11.75H49.2951C50.3338 11.7502 51.3299 12.163 52.0642 12.8976L73.2691 34.1024C74.0036 34.8368 74.4164 35.8328 74.4166 36.8715V74.4167C74.4166 76.4942 73.5914 78.4866 72.1223 79.9557C70.6533 81.4247 68.6608 82.25 66.5833 82.25Z" stroke="#6B7589" stroke-width="2" stroke-linecap="round" stroke-linejoin="round"/>
</svg>
