<svg width="122" height="30" viewBox="0 0 122 30" fill="none" xmlns="http://www.w3.org/2000/svg">
<path d="M37.1378 21H39.9055V16.7557H42.2322C45.2429 16.7557 46.9943 14.9595 46.9943 12.3452C46.9943 9.74361 45.2749 7.90909 42.3026 7.90909H37.1378V21ZM39.9055 14.5376V10.1719H41.772C43.37 10.1719 44.1435 11.0412 44.1435 12.3452C44.1435 13.6428 43.37 14.5376 41.7848 14.5376H39.9055ZM51.464 7.90909H48.7409V21H51.464V7.90909ZM56.445 21.1854C57.896 21.1854 58.8356 20.5526 59.315 19.6385H59.3917V21H61.9741V14.3778C61.9741 12.0384 59.9925 11.054 57.8065 11.054C55.4542 11.054 53.9073 12.179 53.5302 13.9688L56.0487 14.1733C56.234 13.5213 56.8157 13.0419 57.7937 13.0419C58.7205 13.0419 59.2511 13.5085 59.2511 14.3139V14.3523C59.2511 14.9851 58.5799 15.0682 56.8732 15.2344C54.93 15.4134 53.185 16.0653 53.185 18.2578C53.185 20.201 54.5721 21.1854 56.445 21.1854ZM57.2248 19.3061C56.3874 19.3061 55.7866 18.9162 55.7866 18.1683C55.7866 17.4013 56.4194 17.0241 57.3782 16.8899C57.9727 16.8068 58.9442 16.6662 59.2702 16.4489V17.4908C59.2702 18.5199 58.4201 19.3061 57.2248 19.3061ZM65.4162 24.6818C67.4425 24.6818 68.5163 23.6463 69.0724 22.0611L72.8885 11.1946L70.0057 11.1818L67.9538 18.392H67.8516L65.8189 11.1818H62.9553L66.4773 21.2812L66.3175 21.6967C65.9595 22.6172 65.2756 22.6619 64.3168 22.3679L63.7031 24.4006C64.093 24.5668 64.7259 24.6818 65.4162 24.6818ZM75.2583 21.1662C76.0765 21.1662 76.786 20.4822 76.7924 19.6321C76.786 18.7947 76.0765 18.1108 75.2583 18.1108C74.4146 18.1108 73.7179 18.7947 73.7243 19.6321C73.7179 20.4822 74.4146 21.1662 75.2583 21.1662ZM79.0281 21H81.7511V11.1818H79.0281V21ZM80.396 9.91619C81.2077 9.91619 81.8725 9.29616 81.8725 8.53551C81.8725 7.78125 81.2077 7.16122 80.396 7.16122C79.5906 7.16122 78.9258 7.78125 78.9258 8.53551C78.9258 9.29616 79.5906 9.91619 80.396 9.91619ZM89.1547 11.1818H87.3074V8.82955H84.5843V11.1818H83.242V13.2273H84.5843V18.3409C84.5716 20.2649 85.8819 21.2173 87.8571 21.1342C88.5602 21.1087 89.0588 20.968 89.3336 20.8786L88.9054 18.8523C88.7711 18.8778 88.4835 18.9418 88.2278 18.9418C87.6845 18.9418 87.3074 18.7372 87.3074 17.983V13.2273H89.1547V11.1818Z" fill="#171C26"/>
<path d="M11.25 12.7734V12.4219C11.25 11.5523 11.8359 10.8398 12.6703 10.6295L22.9002 7.89432C23.0736 7.84793 23.2553 7.84198 23.4313 7.87692C23.6073 7.91187 23.773 7.98678 23.9155 8.09588C24.058 8.20498 24.1735 8.34535 24.2532 8.50617C24.3329 8.66699 24.3745 8.84396 24.375 9.02343V10.3125" stroke="black" stroke-width="2" stroke-linecap="round" stroke-linejoin="round"/>
<path d="M24.375 17.3402V22.0277C24.375 22.8428 23.8518 23.5271 23.0859 23.7855L21.7969 24.2543C20.2793 24.7652 18.75 23.6437 18.75 22.0277C18.7465 21.6126 18.8752 21.2071 19.1175 20.87C19.3598 20.5329 19.7031 20.2817 20.0977 20.1527L23.0859 19.0892C23.8518 18.8314 24.375 18.1553 24.375 17.3402ZM24.375 17.3402V3.39842C24.3746 3.30872 24.3536 3.2203 24.3136 3.13999C24.2736 3.05969 24.2157 2.98963 24.1444 2.93523C24.0731 2.88082 23.9902 2.84353 23.9022 2.82621C23.8142 2.80889 23.7233 2.81201 23.6367 2.83534L11.9531 5.97655C11.7493 6.0341 11.5701 6.15705 11.4431 6.32644C11.316 6.49584 11.2482 6.70231 11.25 6.91405V20.1562C11.25 20.9713 10.7268 21.6562 9.96094 21.914L6.91406 22.9687C6.10078 23.243 5.625 23.9777 5.625 24.8437C5.625 26.4597 7.17891 27.5713 8.67188 27.0703L9.96094 26.6015C10.7268 26.3437 11.25 25.6594 11.25 24.8437V20.1562" stroke="black" stroke-width="2" stroke-linecap="round" stroke-linejoin="round"/>
</svg>
