<svg width="106" height="30" viewBox="0 0 106 30" fill="none" xmlns="http://www.w3.org/2000/svg">
<path d="M44.2393 11.674H46.892C46.8537 9.34091 44.9361 7.73011 42.0213 7.73011C39.1513 7.73011 37.0483 9.31534 37.0611 11.6932C37.0547 13.6236 38.4162 14.7294 40.6278 15.2599L42.0533 15.6179C43.4787 15.9631 44.2713 16.3722 44.2777 17.2543C44.2713 18.2131 43.3636 18.8651 41.9574 18.8651C40.5192 18.8651 39.4837 18.2003 39.3942 16.8899H36.7159C36.7862 19.7216 38.8125 21.1854 41.9893 21.1854C45.1854 21.1854 47.0646 19.6577 47.071 17.2607C47.0646 15.081 45.4219 13.924 43.1463 13.4126L41.9702 13.1314C40.8324 12.8693 39.88 12.4474 39.8991 11.5078C39.8991 10.6641 40.647 10.044 42.0021 10.044C43.3253 10.044 44.1371 10.6449 44.2393 11.674ZM51.6046 15.3239C51.611 14.0582 52.3844 13.3168 53.4966 13.3168C54.6025 13.3168 55.2544 14.0263 55.248 15.2344V21H57.9711V14.7486C57.9775 12.4474 56.6223 11.054 54.5769 11.054C53.0875 11.054 52.0904 11.7571 51.6429 12.9141H51.5279V7.90909H48.8816V21H51.6046V15.3239ZM62.9137 21.1854C64.3647 21.1854 65.3043 20.5526 65.7837 19.6385H65.8604V21H68.4428V14.3778C68.4428 12.0384 66.4613 11.054 64.2752 11.054C61.9229 11.054 60.3761 12.179 59.9989 13.9688L62.5174 14.1733C62.7028 13.5213 63.2844 13.0419 64.2624 13.0419C65.1893 13.0419 65.7198 13.5085 65.7198 14.3139V14.3523C65.7198 14.9851 65.0487 15.0682 63.342 15.2344C61.3988 15.4134 59.6538 16.0653 59.6538 18.2578C59.6538 20.201 61.0408 21.1854 62.9137 21.1854ZM63.6935 19.3061C62.8562 19.3061 62.2553 18.9162 62.2553 18.1683C62.2553 17.4013 62.8881 17.0241 63.8469 16.8899C64.4414 16.8068 65.413 16.6662 65.739 16.4489V17.4908C65.739 18.5199 64.8888 19.3061 63.6935 19.3061ZM70.5043 21H78.7564V18.8267H74.0774V18.7564L78.5902 12.9524V11.1818H70.6705V13.3551H75.3111V13.4254L70.5043 19.3764V21ZM83.6383 21.1854C85.0893 21.1854 86.0289 20.5526 86.5083 19.6385H86.5851V21H89.1674V14.3778C89.1674 12.0384 87.1859 11.054 84.9998 11.054C82.6475 11.054 81.1007 12.179 80.7235 13.9688L83.242 14.1733C83.4274 13.5213 84.0091 13.0419 84.987 13.0419C85.9139 13.0419 86.4444 13.5085 86.4444 14.3139V14.3523C86.4444 14.9851 85.7733 15.0682 84.0666 15.2344C82.1234 15.4134 80.3784 16.0653 80.3784 18.2578C80.3784 20.201 81.7654 21.1854 83.6383 21.1854ZM84.4181 19.3061C83.5808 19.3061 82.9799 18.9162 82.9799 18.1683C82.9799 17.4013 83.6127 17.0241 84.5716 16.8899C85.166 16.8068 86.1376 16.6662 86.4636 16.4489V17.4908C86.4636 18.5199 85.6135 19.3061 84.4181 19.3061ZM91.28 21H94.003V15.1065C94.003 14.0199 94.6934 13.2976 95.601 13.2976C96.4959 13.2976 97.0968 13.9112 97.0968 14.8764V21H99.7367V15.0043C99.7367 13.9879 100.318 13.2976 101.309 13.2976C102.178 13.2976 102.83 13.8409 102.83 14.9339V21H105.547V14.397C105.547 12.2685 104.281 11.054 102.453 11.054C101.015 11.054 99.8965 11.7891 99.4938 12.9141H99.3915C99.0783 11.7763 98.0748 11.054 96.726 11.054C95.4029 11.054 94.3993 11.7571 93.9902 12.9141H93.8752V11.1818H91.28V21Z" fill="#171C26"/>
<path d="M11.25 12.7734V12.4219C11.25 11.5523 11.8359 10.8398 12.6703 10.6295L22.9002 7.89432C23.0736 7.84793 23.2553 7.84198 23.4313 7.87692C23.6073 7.91187 23.773 7.98678 23.9155 8.09588C24.058 8.20498 24.1735 8.34535 24.2532 8.50617C24.3329 8.66699 24.3745 8.84396 24.375 9.02343V10.3125" stroke="black" stroke-width="2" stroke-linecap="round" stroke-linejoin="round"/>
<path d="M24.375 17.3402V22.0277C24.375 22.8428 23.8518 23.5271 23.0859 23.7855L21.7969 24.2543C20.2793 24.7652 18.75 23.6437 18.75 22.0277C18.7465 21.6126 18.8752 21.2071 19.1175 20.87C19.3598 20.5329 19.7031 20.2817 20.0977 20.1527L23.0859 19.0892C23.8518 18.8314 24.375 18.1553 24.375 17.3402ZM24.375 17.3402V3.39842C24.3746 3.30872 24.3536 3.2203 24.3136 3.13999C24.2736 3.05969 24.2157 2.98963 24.1444 2.93523C24.0731 2.88082 23.9902 2.84353 23.9022 2.82621C23.8142 2.80889 23.7233 2.81201 23.6367 2.83534L11.9531 5.97655C11.7493 6.0341 11.5701 6.15705 11.4431 6.32644C11.316 6.49584 11.2482 6.70231 11.25 6.91405V20.1562C11.25 20.9713 10.7268 21.6562 9.96094 21.914L6.91406 22.9687C6.10078 23.243 5.625 23.9777 5.625 24.8437C5.625 26.4597 7.17891 27.5713 8.67188 27.0703L9.96094 26.6015C10.7268 26.3437 11.25 25.6594 11.25 24.8437V20.1562" stroke="black" stroke-width="2" stroke-linecap="round" stroke-linejoin="round"/>
</svg>
